<svg version="1" xmlns="http://www.w3.org/2000/svg" width="400" height="400" viewBox="0 0 300.000000 300.000000"><path d="M18.1 1.2c-5.9 1.6-11.5 6.3-14.6 12l-3 5.3L.2 147C0 237.6.2 277 1 280.6c1.4 6.8 5.7 12.4 12.2 16l5.3 2.9 128.5.3c90.6.2 130 0 133.6-.8 6.8-1.4 12.4-5.7 16-12.2l2.9-5.3.3-128.5c.2-90.6 0-130-.8-133.6-1.4-6.8-5.7-12.4-12.2-16L281.5.5l-130-.2C68 .2 20.3.5 18.1 1.2zM170 24.8c16.6 5.9 28.4 15.9 35.4 30 2.3 4.7 3.7 6.4 5.6 6.8 17 3.3 27.7 12.2 32.1 26.7 5.7 18.4-2.6 37.5-20 46l-6.6 3.2-59.2.3c-50.7.2-60.1.1-65.9-1.3-22.8-5.3-37.5-23.1-36.2-43.9.6-9.5 4.1-16.9 11.4-24.6 6.4-6.7 15.9-12.1 24.8-14.1 4.9-1.1 5.8-1.7 8.6-6 6.9-10.7 21.7-20.9 35.5-24.4 8.4-2.1 27-1.4 34.5 1.3zm-9.1 144.6c6.8 4.7 9.8 13.9 7 21.3-2.5 6.6-11 12.3-18.4 12.3-7.4 0-15.9-5.7-18.4-12.3-3.3-8.8 1.3-19.1 10.4-23.3 5-2.4 14.5-1.3 19.4 2zm16.1 40.5c.6 1.2 1 11.8 1 27.5 0 21.8-.2 25.7-1.6 27-2.3 2.4-50.5 2.4-52.8 0-1.4-1.3-1.6-5.3-1.6-27.9 0-24.1.2-26.5 1.8-27.4 1-.6 11.7-1.1 26.9-1.1 23.9 0 25.3.1 26.3 1.9z"/></svg>