<?xml version="1.0" standalone="no"?>
<!DOCTYPE svg PUBLIC "-//W3C//DTD SVG 20010904//EN"
 "http://www.w3.org/TR/2001/REC-SVG-20010904/DTD/svg10.dtd">
<svg version="1.0" xmlns="http://www.w3.org/2000/svg"
 width="96.000000pt" height="96.000000pt" viewBox="0 0 96.000000 96.000000"
 preserveAspectRatio="xMidYMid meet">
<metadata>
Created by potrace 1.11, written by Peter Selinger 2001-2013
</metadata>
<g transform="translate(0.000000,96.000000) scale(0.100000,-0.100000)"
fill="#000000" stroke="none">
<path d="M250 480 l0 -370 235 0 235 0 0 309 0 309 -72 61 -72 61 -163 0 -163
0 0 -370z m389 299 l71 -61 0 -299 0 -299 -225 0 -225 0 0 360 0 360 154 0
155 0 70 -61z"/>
<path d="M457 488 c-24 -64 -26 -87 -3 -55 17 22 55 22 72 0 7 -10 14 -16 17
-13 6 8 -44 130 -53 130 -5 0 -19 -28 -33 -62z m46 2 c4 -15 0 -20 -13 -20
-13 0 -17 5 -13 20 3 11 9 20 13 20 4 0 10 -9 13 -20z"/>
<path d="M378 499 c-21 -11 -38 -22 -38 -24 0 -4 67 -35 76 -35 2 0 4 4 4 10
0 5 -12 13 -26 16 l-27 7 27 14 c14 7 26 18 26 23 0 12 2 13 -42 -11z"/>
<path d="M560 505 c0 -2 12 -11 26 -18 l27 -14 -27 -7 c-14 -3 -26 -11 -26
-16 0 -6 2 -10 4 -10 9 0 76 31 76 35 0 2 -13 11 -30 20 -29 15 -50 19 -50 10z"/>
</g>
</svg>
